<?xml version="1.0" encoding="UTF-8" standalone="no"?>
<svg
   xmlns:dc="http://purl.org/dc/elements/1.1/"
   xmlns:cc="http://creativecommons.org/ns#"
   xmlns:rdf="http://www.w3.org/1999/02/22-rdf-syntax-ns#"
   xmlns:svg="http://www.w3.org/2000/svg"
   xmlns="http://www.w3.org/2000/svg"
   viewBox="0 0 1122.52 793.70667"
   height="793.70667"
   width="1122.52"
   xml:space="preserve"
   id="svg2"
   version="1.1"><metadata
     id="metadata8"><rdf:RDF><cc:Work
         rdf:about=""><dc:format>image/svg+xml</dc:format><dc:type
           rdf:resource="http://purl.org/dc/dcmitype/StillImage" /></cc:Work></rdf:RDF></metadata><defs
     id="defs6"><clipPath
       id="clipPath18"
       clipPathUnits="userSpaceOnUse"><path
         id="path16"
         d="M 0,595.28 H 841.89 V 0 H 0 Z" /></clipPath></defs><g
     transform="matrix(1.3333333,0,0,-1.3333333,0,793.70667)"
     id="g10"><g
       id="g12"><g
         clip-path="url(#clipPath18)"
         id="g14"><g
           transform="translate(233.9697,331.3604)"
           id="g20"><path
             id="path22"
             style="fill:#ffffff;fill-opacity:1;fill-rule:nonzero;stroke:none"
             d="m 0,0 h -38.798 c -0.4,1.215 -1.53,2.096 -2.878,2.096 -2.251,0 -3.805,-2.41 -2.663,-4.494 l -18.106,-19.289 c -1.05,0.478 -2.183,0.313 -3.053,-0.372 l -17.393,11.345 c 0.458,1.84 -0.949,3.549 -2.778,3.549 -2.231,0 -3.625,-2.445 -2.436,-4.372 l -18.624,-23.064 c -1.563,0.549 -3.102,-0.315 -3.604,-1.719 h -40.184 c -1.071,3 -5.507,2.216 -5.507,-0.951 0,-3.162 4.434,-3.955 5.507,-0.95 h 40.184 c 1.071,-3.002 5.508,-2.217 5.508,0.95 0,0.544 -0.161,1.047 -0.425,1.48 l 18.626,23.062 c 0.987,-0.353 1.946,-0.148 2.694,0.424 l 17.39,-11.344 c -1.116,-4.372 5.835,-5.101 5.835,-0.733 0,0.504 -0.137,0.974 -0.358,1.389 l 18.104,19.29 c 1.707,-0.796 3.606,0.116 4.161,1.803 L 0,-1.9 C 1.08,-5.18 5.922,-4.383 5.922,-0.949 5.922,2.488 1.08,3.278 0,0" /></g><g
           transform="translate(84.5825,308.8584)"
           id="g24"><path
             id="path26"
             style="fill:#c8c7c7;fill-opacity:1;fill-rule:nonzero;stroke:none"
             d="m 0,0 9.985,-0.986 c 0.502,-4.029 1.385,-7.937 2.593,-11.702 H 25.049 C 10.961,22.376 36.972,60.69 74.716,60.69 c 23.744,0 43.92,-15.55 50.893,-36.998 h 12.231 c -0.791,3.014 -1.783,5.95 -2.98,8.784 8.015,5.742 9.209,6.147 8.492,7.395 -6.03,10.444 -5.873,10.989 -7.108,10.989 -0.376,0 -9.242,-4.084 -9.585,-4.237 -3.586,4.713 -7.798,8.922 -12.512,12.508 4.109,9.071 4.916,9.962 3.67,10.678 l -10.421,6.018 c -0.458,0.262 -1.226,0.113 -1.55,-0.336 L 100,67.334 c -5.378,2.268 -11.118,3.836 -17.107,4.588 -0.978,9.91 -0.737,11.049 -2.16,11.049 -12.122,0 -13.068,0.356 -13.208,-1.066 l -0.987,-9.983 c -5.99,-0.752 -11.731,-2.32 -17.104,-4.588 -5.945,8.294 -5.783,8.622 -6.864,8.622 -0.507,0 -10.515,-5.892 -10.954,-6.147 -0.457,-0.265 -0.704,-1.027 -0.487,-1.51 l 4.155,-9.168 c -4.713,-3.586 -8.924,-7.795 -12.51,-12.508 -9.077,4.11 -9.953,4.916 -10.679,3.666 L 6.081,39.871 C 5.816,39.409 5.984,38.63 6.414,38.32 l 8.157,-5.846 C 12.304,27.1 10.737,21.356 9.985,15.365 0.076,14.388 -1.065,14.633 -1.065,13.207 V 1.173 C -1.065,0.644 -0.526,0.051 0,0" /></g><g
           transform="translate(159.2988,261.6787)"
           id="g28"><path
             id="path30"
             style="fill:#269dd9;fill-opacity:1;fill-rule:nonzero;stroke:none"
             d="M 0,0 C -21.21,0 -39.567,12.413 -48.215,30.352 H -60.99 c 0.27,-0.715 0.549,-1.428 0.844,-2.135 -8.023,-5.749 -9.208,-6.147 -8.49,-7.396 6.03,-10.449 5.873,-10.99 7.109,-10.99 0.382,0 9.236,4.079 9.585,4.237 3.586,-4.713 7.796,-8.922 12.51,-12.508 -4.091,-9.029 -4.915,-9.957 -3.669,-10.677 l 10.421,-6.018 c 0.461,-0.264 1.228,-0.113 1.55,0.335 l 5.848,8.155 c 5.372,-2.268 11.114,-3.834 17.103,-4.585 0.982,-9.917 0.738,-11.048 2.162,-11.048 12.212,0 13.071,-0.357 13.207,1.062 l 0.987,9.986 c 5.989,0.751 11.732,2.317 17.107,4.585 5.776,-8.058 6.146,-9.209 7.396,-8.49 10.499,6.064 11.491,6.226 10.904,7.528 L 39.431,1.56 c 4.714,3.586 8.925,7.795 12.511,12.508 8.848,-4.008 9.955,-4.915 10.676,-3.665 l 6.017,10.418 c 0.264,0.46 0.097,1.242 -0.334,1.551 l -8.157,5.843 c 2.266,5.378 3.836,11.118 4.586,17.11 9.916,0.98 11.051,0.734 11.051,2.159 0,12.096 0.354,13.067 -1.066,13.209 l -9.985,0.985 c -0.21,1.687 -0.499,3.35 -0.837,4.996 H 51.85 C 60.474,32.672 34.604,0 0,0" /></g><g
           transform="translate(195.8857,332.4687)"
           id="g32"><path
             id="path34"
             style="fill:#c8c7c7;fill-opacity:1;fill-rule:nonzero;stroke:none"
             d="M 0,0 H 3.975 V 13.362 H -11.159 V -7.112 l 3.602,3.837 C -9.059,1.409 -2.429,4.282 0,0" /></g><g
           transform="translate(191.3291,326.376)"
           id="g36"><path
             id="path38"
             style="fill:#9e9e9e;fill-opacity:1;fill-rule:nonzero;stroke:none"
             d="m 0,0 -6.603,-7.034 v -46.558 c 5.723,3.199 10.867,7.498 15.134,12.684 V 1.977 H 4.557 C 3.635,0.355 1.764,-0.436 0,0" /></g><g
           transform="translate(171.2041,310.9502)"
           id="g40"><path
             id="path42"
             style="fill:#c8c7c7;fill-opacity:1;fill-rule:nonzero;stroke:none"
             d="m 0,0 6.659,7.094 v 7.084 H -8.472 V 3.419 l 5.749,-3.751 C -1.903,0.085 -0.944,0.218 0,0" /></g><g
           transform="translate(162.7319,266.334)"
           id="g44"><path
             id="path46"
             style="fill:#9e9e9e;fill-opacity:1;fill-rule:nonzero;stroke:none"
             d="m 0,0 c 5.218,0.312 10.309,1.413 15.131,3.245 v 42.45 L 11.47,41.793 c 0.783,-2.582 -1.177,-5.228 -3.907,-5.228 -2.435,0 -4.237,2.131 -4.067,4.276 L 0,43.12 Z" /></g><g
           transform="translate(148.3003,325.3027)"
           id="g48"><path
             id="path50"
             style="fill:#c8c7c7;fill-opacity:1;fill-rule:nonzero;stroke:none"
             d="M 0,0 C 2.162,0 4.028,-1.756 3.975,-4.112 L 7.566,-6.454 V 9.789 H -7.567 V -10.07 l 3.831,4.742 C -4.685,-2.745 -2.75,0 0,0" /></g><g
           transform="translate(140.7334,269.7178)"
           id="g52"><path
             id="path54"
             style="fill:#9e9e9e;fill-opacity:1;fill-rule:nonzero;stroke:none"
             d="M 0,0 C 4.775,-1.818 9.862,-2.96 15.133,-3.332 V 44.215 L 9.286,48.027 C 8.585,47.688 7.798,47.557 7.031,47.671 L 0,38.963 Z" /></g><g
           transform="translate(133.8701,272.9141)"
           id="g56"><path
             id="path58"
             style="fill:#9e9e9e;fill-opacity:1;fill-rule:nonzero;stroke:none"
             d="m 0,0 v 27.271 l -3.851,-4.77 c 1.617,-4.454 -4.621,-7.39 -7.073,-3.385 h -4.209 V 12.604 C -10.931,7.489 -5.789,3.216 0,0" /></g><g
           transform="translate(126.8174,298.002)"
           id="g60"><path
             id="path62"
             style="fill:#c8c7c7;fill-opacity:1;fill-rule:nonzero;stroke:none"
             d="m 0,0 7.053,8.734 v 9.314 H -8.081 V -1.854 h 4.209 C -3.056,-0.522 -1.522,0.216 0,0" /></g><g
           transform="translate(423.2373,381.1934)"
           id="g64"><path
             id="path66"
             style="fill:#2b2b2a;fill-opacity:1;fill-rule:nonzero;stroke:none"
             d="m 0,0 c -8.219,0 -14.65,-2.763 -19.298,-8.285 -4.647,-5.523 -6.972,-13.068 -6.972,-22.632 0,-7.746 2.037,-14.043 6.113,-18.894 4.075,-4.849 9.296,-7.274 15.661,-7.274 6.365,0 12.276,1.213 17.732,3.638 v 17.984 H -1.718 v 7.375 h 23.541 v -29.704 c -8.824,-4.514 -17.817,-6.77 -26.976,-6.77 -6.668,0 -12.411,1.632 -17.227,4.901 -4.816,3.265 -8.335,7.391 -10.558,12.377 -2.222,4.984 -3.334,10.439 -3.334,16.367 0,11.316 3.299,20.577 9.902,27.786 6.6,7.206 15.39,10.81 26.37,10.81 5.388,0 11.382,-1.078 17.983,-3.233 L 15.459,-2.626 C 10.003,-0.875 4.85,0 0,0" /></g><g
           transform="translate(457.6895,317.8437)"
           id="g68"><path
             id="path70"
             style="fill:#2b2b2a;fill-opacity:1;fill-rule:nonzero;stroke:none"
             d="m 0,0 v 69.816 h 41.021 l -1.92,-7.678 H 8.689 V 39.102 H 37.384 V 31.726 H 8.689 V 7.679 H 42.94 V 0 Z" /></g><g
           transform="translate(545.791,378.9712)"
           id="g72"><path
             id="path74"
             style="fill:#2b2b2a;fill-opacity:1;fill-rule:nonzero;stroke:none"
             d="m 0,0 c -4.716,1.616 -9.093,2.425 -13.134,2.425 -4.042,0 -7.343,-1.045 -9.901,-3.133 -2.562,-2.088 -3.841,-4.614 -3.841,-7.577 0,-4.244 2.256,-7.578 6.771,-10.003 l 14.246,-7.88 c 7.947,-4.446 11.921,-10.172 11.921,-17.177 0,-5.793 -2.055,-10.406 -6.163,-13.841 -4.109,-3.436 -9.901,-5.153 -17.378,-5.153 -7.477,0 -14.18,1.346 -20.107,4.042 l 2.526,7.072 c 5.523,-2.425 10.962,-3.638 16.318,-3.638 5.354,0 9.311,1.043 11.872,3.132 2.558,2.088 3.84,4.613 3.84,7.578 0,4.243 -2.259,7.577 -6.771,10.003 l -14.246,7.88 c -7.948,4.446 -11.922,10.17 -11.922,17.176 0,5.793 2.054,10.407 6.163,13.843 4.109,3.435 9.632,5.152 16.57,5.152 4.715,0 10.004,-0.977 15.863,-2.93 z" /></g><g
           transform="translate(556.4004,379.9814)"
           id="g76"><path
             id="path78"
             style="fill:#2b2b2a;fill-opacity:1;fill-rule:nonzero;stroke:none"
             d="M 0,0 V 7.679 H 48.699 V 0 H 28.693 v -62.138 h -8.688 l 0,62.138 z" /></g><path
           id="path80"
           style="fill:#2b2b2a;fill-opacity:1;fill-rule:nonzero;stroke:none"
           d="m 614.191,387.66 h 8.688 v -69.816 h -8.688 z" /><g
           transform="translate(669.2549,392.813)"
           id="g82"><path
             id="path84"
             style="fill:#2b2b2a;fill-opacity:1;fill-rule:nonzero;stroke:none"
             d="M 0,0 H -6.466 L 6.365,18.59 13.64,13.134 Z m 2.627,-11.518 c -8.353,0 -14.786,-2.728 -19.298,-8.184 -4.514,-5.456 -6.769,-13.101 -6.769,-22.935 0,-7.208 1.935,-13.372 5.809,-18.489 3.872,-5.121 9.278,-7.679 16.216,-7.679 8.352,0 14.768,2.727 19.248,8.183 4.479,5.456 6.719,13.1 6.719,22.935 0,7.208 -1.92,13.37 -5.759,18.49 -3.84,5.118 -9.229,7.679 -16.166,7.679 m -4.546,-64.663 c -5.053,0 -9.584,0.943 -13.59,2.828 -4.008,1.887 -7.259,4.411 -9.75,7.578 -4.986,6.467 -7.476,14.212 -7.476,23.239 0,11.316 3.266,20.577 9.799,27.785 6.534,7.207 15.19,10.81 25.966,10.81 5.053,0 9.581,-0.943 13.59,-2.829 4.007,-1.886 7.224,-4.412 9.65,-7.577 5.051,-6.466 7.577,-14.213 7.577,-23.238 0,-11.316 -3.268,-20.579 -9.8,-27.786 -6.534,-7.208 -15.191,-10.81 -25.966,-10.81" /></g><g
           transform="translate(765.7432,333.5049)"
           id="g86"><path
             id="path88"
             style="fill:#2b2b2a;fill-opacity:1;fill-rule:nonzero;stroke:none"
             d="M 0,0 V 54.155 H 8.688 V -15.661 H 0.303 l -41.121,54.257 h -0.505 v -54.257 h -8.691 v 69.816 h 8.388 L -0.506,0 Z" /></g><path
           id="path90"
           style="fill:#9e9e9e;fill-opacity:1;fill-rule:nonzero;stroke:none"
           d="m 266.962,283.716 h 8.393 v -45.024 h -8.393 z" /><g
           transform="translate(329.2661,272.7568)"
           id="g92"><path
             id="path94"
             style="fill:#9e9e9e;fill-opacity:1;fill-rule:nonzero;stroke:none"
             d="m 0,0 v -34.065 h -8.394 v 33.67 c 0,1.711 -0.675,3.027 -2.023,3.95 -1.35,0.921 -3.145,1.382 -5.381,1.382 -4.676,0 -9.514,-1.679 -14.515,-5.036 v -33.966 h -8.394 v 45.024 h 5.332 l 2.469,-5.133 c 5.069,4.211 10.565,6.32 16.49,6.32 4.409,0 7.914,-1.123 10.515,-3.358 C -1.3,6.548 0,3.619 0,0" /></g><g
           transform="translate(351.0874,278.583)"
           id="g96"><path
             id="path98"
             style="fill:#9e9e9e;fill-opacity:1;fill-rule:nonzero;stroke:none"
             d="m 0,0 c 4.871,4.211 10.269,6.319 16.193,6.319 5.925,0 9.974,-2.305 12.145,-6.913 5.2,4.608 10.664,6.913 16.391,6.913 4.212,0 7.554,-1.122 10.021,-3.357 2.47,-2.24 3.705,-5.169 3.705,-8.788 v -34.066 h -8.394 v 33.671 c 0,1.711 -0.627,3.027 -1.876,3.95 -1.251,0.92 -2.93,1.381 -5.035,1.381 -4.28,0 -8.855,-1.745 -13.726,-5.232 v -33.77 h -8.393 v 33.671 c 0,1.711 -0.626,3.027 -1.876,3.95 -1.251,0.92 -2.929,1.381 -5.035,1.381 -4.411,0 -8.921,-1.678 -13.528,-5.035 V -39.892 H -7.8 V 5.133 h 5.331 z" /></g><g
           transform="translate(442.0254,278.4844)"
           id="g100"><path
             id="path102"
             style="fill:#9e9e9e;fill-opacity:1;fill-rule:nonzero;stroke:none"
             d="m 0,0 c -2.502,0 -4.658,-0.561 -6.468,-1.68 -1.81,-1.12 -3.143,-2.567 -3.998,-4.343 -1.58,-3.359 -2.371,-6.948 -2.371,-10.764 0,-11.85 4.114,-17.773 12.343,-17.773 2.502,0 4.64,0.558 6.418,1.678 1.778,1.119 3.126,2.569 4.049,4.345 1.58,3.291 2.37,6.878 2.37,10.763 C 12.343,-5.925 8.229,0 0,0 m 0,6.418 c 7.307,0 12.639,-2.272 15.996,-6.814 3.357,-4.542 5.035,-10.466 5.035,-17.773 0,-5.268 -1.383,-10.138 -4.146,-14.614 -1.516,-2.435 -3.786,-4.41 -6.814,-5.924 -3.028,-1.514 -6.648,-2.272 -10.861,-2.272 -7.242,0 -12.507,2.173 -15.798,6.518 -3.293,4.345 -4.936,10.17 -4.936,17.477 0,4.278 0.673,7.899 2.023,10.862 1.349,2.961 2.779,5.247 4.295,6.861 1.514,1.613 3.587,2.963 6.221,4.048 2.631,1.087 5.628,1.631 8.985,1.631" /></g><g
           transform="translate(491.2969,244.2207)"
           id="g104"><path
             id="path106"
             style="fill:#9e9e9e;fill-opacity:1;fill-rule:nonzero;stroke:none"
             d="m 0,0 c 4.937,0 8.754,1.679 11.453,5.035 2.699,3.358 4.049,7.405 4.049,12.146 0,4.74 -1.185,8.541 -3.555,11.404 -2.369,2.864 -5.415,4.295 -9.134,4.295 -3.719,0 -7.686,-1.119 -11.897,-3.358 V 1.776 C -5.99,0.593 -2.962,0 0,0 M -9.084,65.366 V 35.842 c 5.002,2.83 10.054,4.246 15.155,4.246 5.102,0 9.365,-2.058 12.788,-6.171 3.422,-4.114 5.134,-9.496 5.134,-16.145 0,-6.649 -1.991,-12.391 -5.973,-17.228 -3.984,-4.84 -9.661,-7.259 -17.033,-7.259 -5.663,0 -11.718,1.448 -18.169,4.346 v 67.735 z" /></g><path
           id="path108"
           style="fill:#9e9e9e;fill-opacity:1;fill-rule:nonzero;stroke:none"
           d="m 527.334,283.716 h 8.395 v -45.024 h -8.395 z" /><path
           id="path110"
           style="fill:#9e9e9e;fill-opacity:1;fill-rule:nonzero;stroke:none"
           d="m 550.537,309.587 h 8.098 v -70.896 h -8.098 z" /><path
           id="path112"
           style="fill:#9e9e9e;fill-opacity:1;fill-rule:nonzero;stroke:none"
           d="m 573.443,283.716 h 8.395 v -45.024 h -8.395 z" /><g
           transform="translate(602.8174,253.0576)"
           id="g114"><path
             id="path116"
             style="fill:#9e9e9e;fill-opacity:1;fill-rule:nonzero;stroke:none"
             d="m 0,0 c -0.428,-0.889 -0.641,-2.041 -0.641,-3.456 0,-1.415 0.608,-2.633 1.827,-3.653 C 2.403,-8.13 4,-8.64 5.975,-8.64 c 4.147,0 8.457,1.842 12.935,5.53 V 6.764 C 10.615,6.631 5.15,5.381 2.519,3.012 1.268,1.892 0.429,0.89 0,0 m 18.91,12.59 v 4.345 c 0,5.331 -2.765,7.997 -8.295,7.997 -4.344,0 -8.886,-1.416 -13.626,-4.246 l -2.863,5.924 c 5.529,3.489 11.486,5.235 17.871,5.235 4.477,0 8.147,-1.138 11.01,-3.408 2.863,-2.271 4.295,-5.776 4.295,-10.516 v -32.287 h -5.331 l -2.469,5.925 c -2.108,-2.173 -4.608,-3.901 -7.505,-5.185 -2.896,-1.284 -5.528,-1.926 -7.898,-1.926 -4.082,0 -7.341,1.121 -9.776,3.358 -2.435,2.237 -3.653,5.167 -3.653,8.787 0,10.665 9.412,15.997 28.24,15.997" /></g><g
           transform="translate(644.1406,283.7158)"
           id="g118"><path
             id="path120"
             style="fill:#9e9e9e;fill-opacity:1;fill-rule:nonzero;stroke:none"
             d="m 0,0 h 5.331 l 2.47,-7.898 h 0.394 c 3.619,4.673 8.59,7.503 14.91,8.491 l 0.888,-7.8 c -3.095,-0.197 -6.09,-0.987 -8.985,-2.371 -2.898,-1.381 -5.102,-3.225 -6.615,-5.528 V -45.024 H 0 Z" /></g><path
           id="path122"
           style="fill:#9e9e9e;fill-opacity:1;fill-rule:nonzero;stroke:none"
           d="m 676.229,283.716 h 8.395 v -45.024 h -8.395 z" /><g
           transform="translate(705.6025,253.0576)"
           id="g124"><path
             id="path126"
             style="fill:#9e9e9e;fill-opacity:1;fill-rule:nonzero;stroke:none"
             d="m 0,0 c -0.428,-0.889 -0.641,-2.041 -0.641,-3.456 0,-1.415 0.608,-2.633 1.827,-3.653 C 2.403,-8.13 4,-8.64 5.975,-8.64 c 4.147,0 8.457,1.842 12.935,5.53 V 6.764 C 10.615,6.631 5.15,5.381 2.519,3.012 1.268,1.892 0.429,0.89 0,0 m 18.91,12.59 v 4.345 c 0,5.331 -2.765,7.997 -8.295,7.997 -4.344,0 -8.886,-1.416 -13.626,-4.246 l -2.863,5.924 c 5.529,3.489 11.486,5.235 17.871,5.235 4.477,0 8.147,-1.138 11.01,-3.408 2.863,-2.271 4.295,-5.776 4.295,-10.516 v -32.287 h -5.331 l -2.469,5.925 c -2.108,-2.173 -4.608,-3.901 -7.505,-5.185 -2.896,-1.284 -5.528,-1.926 -7.898,-1.926 -4.082,0 -7.341,1.121 -9.776,3.358 -2.435,2.237 -3.653,5.167 -3.653,8.787 0,10.665 9.412,15.997 28.24,15.997" /></g><g
           transform="translate(770.0322,275.8174)"
           id="g128"><path
             id="path130"
             style="fill:#9e9e9e;fill-opacity:1;fill-rule:nonzero;stroke:none"
             d="m 0,0 c -3.358,1.447 -6.518,2.172 -9.48,2.172 -5.726,0 -8.59,-1.745 -8.59,-5.233 0,-3.029 3.817,-5.958 11.454,-8.788 2.83,-1.053 5.446,-2.7 7.849,-4.938 2.403,-2.237 3.605,-4.936 3.605,-8.095 0,-4.543 -1.482,-7.917 -4.443,-10.121 -2.962,-2.206 -7.078,-3.309 -12.343,-3.309 -5.268,0 -10.402,1.449 -15.404,4.346 l 2.468,6.122 c 4.148,-2.371 8.854,-3.555 14.121,-3.555 2.237,0 4.048,0.476 5.43,1.431 1.383,0.953 2.073,2.254 2.073,3.9 0,1.646 -0.789,3.061 -2.369,4.247 -1.58,1.184 -3.49,2.236 -5.727,3.16 -2.238,0.92 -4.477,1.924 -6.714,3.012 -2.239,1.085 -4.148,2.615 -5.727,4.589 -1.58,1.976 -2.369,4.312 -2.369,7.011 0,4.213 1.432,7.455 4.294,9.726 2.863,2.27 6.5,3.408 10.911,3.408 4.409,0 8.887,-0.988 13.429,-2.963 z" /></g><path
           id="path132"
           style="fill:#269dd9;fill-opacity:1;fill-rule:nonzero;stroke:none"
           d="m 268.432,392.27 h 9.479 v -76.162 h -9.479 z" /><g
           transform="translate(338.4219,348.9531)"
           id="g134"><path
             id="path136"
             style="fill:#269dd9;fill-opacity:1;fill-rule:nonzero;stroke:none"
             d="m 0,0 -9.589,27.445 -1.764,6.173 h -0.441 L -13.558,27.445 -23.147,0 Z M 11.462,-32.845 2.755,-8.046 h -28.768 l -8.707,-24.799 h -9.81 l 27.555,76.162 h 11.353 l 27.556,-76.162 z" /></g></g></g></g></svg>